<?xml version="1.0" encoding="utf-8"?>
<!-- Generator: Adobe Illustrator 21.0.2, SVG Export Plug-In . SVG Version: 6.00 Build 0)  -->
<svg version="1.1" id="Layer_1" xmlns="http://www.w3.org/2000/svg" xmlns:xlink="http://www.w3.org/1999/xlink" x="0px" y="0px"
	 viewBox="0 0 1080 1920" style="enable-background:new 0 0 1080 1920;" xml:space="preserve">
<style type="text/css">
	.st0{fill:#FFFFFF;stroke:#000000;stroke-miterlimit:10;}
	.st1{font-family:'MyriadPro-Regular';}
	.st2{font-size:75.3094px;}
	.st3{fill:none;stroke:#000000;stroke-miterlimit:10;}
</style>
<rect x="764.5" y="58.5" class="st0" width="255" height="140"/>
<rect x="56.5" y="58.5" class="st0" width="681" height="140"/>
<text transform="matrix(1 0 0 1 233.1914 153.6992)" class="st1 st2">Zoek hier!</text>
<g>
	<g>
		<path d="M934.7,151.3c18.4-18.4,18.4-48.2,0-66.6c-18.4-18.4-48.2-18.4-66.6,0c-15.6,15.6-17.9,38.7-7.1,56.8c0,0,0.8,1.3-0.3,2.4
			c-6,6-24,24-24,24c-4.8,4.8-5.9,11.5-1.7,15.7l0.7,0.7c4.2,4.2,10.9,3.1,15.7-1.7c0,0,18-18,24-24c1.1-1.1,2.4-0.3,2.4-0.3
			C895.9,169.3,919.1,166.9,934.7,151.3z M876.8,142.6c-13.6-13.6-13.6-35.6,0-49.2c13.6-13.6,35.6-13.6,49.2,0
			c13.6,13.6,13.6,35.6,0,49.2C912.4,156.2,890.3,156.2,876.8,142.6z"/>
		<g>
			<path d="M879.8,115.3c-0.6,0-1.3-0.1-1.9-0.4c-2.5-1-3.6-3.9-2.6-6.4c6.6-15.5,24.6-22.8,40.1-16.2c2.5,1,3.6,3.9,2.6,6.4
				c-1,2.5-3.9,3.6-6.4,2.6c-10.6-4.5-22.9,0.5-27.3,11.1C883.5,114.1,881.7,115.3,879.8,115.3z"/>
		</g>
	</g>
</g>
<rect x="56.5" y="261.5" class="st0" width="452" height="352"/>
<rect x="573.5" y="262.5" class="st0" width="450" height="350"/>
<rect x="56.5" y="655.5" class="st0" width="450" height="350"/>
<rect x="573.5" y="654.5" class="st0" width="450" height="350"/>
<rect x="56.5" y="1045.5" class="st0" width="450" height="350"/>
<rect x="573.5" y="1046.5" class="st0" width="450" height="350"/>
<rect x="56.5" y="1436.5" class="st0" width="450" height="350"/>
<rect x="573.5" y="1438.5" class="st0" width="450" height="350"/>
<rect x="573.5" y="1830.5" class="st0" width="450" height="89"/>
<rect x="56.5" y="1830.5" class="st0" width="450" height="89"/>
<line class="st3" x1="56.5" y1="613.5" x2="508.5" y2="261.5"/>
<line class="st3" x1="508.5" y1="613.5" x2="56.5" y2="261.5"/>
<line class="st3" x1="1024.5" y1="613.5" x2="572.5" y2="261.5"/>
<line class="st3" x1="1024.5" y1="1005.5" x2="572.5" y2="653.5"/>
<line class="st3" x1="1024.5" y1="1398.5" x2="572.5" y2="1046.5"/>
<line class="st3" x1="508.5" y1="1005.5" x2="56.5" y2="653.5"/>
<line class="st3" x1="507.5" y1="1396.5" x2="55.5" y2="1044.5"/>
<line class="st3" x1="507.5" y1="1787.5" x2="55.5" y2="1435.5"/>
<line class="st3" x1="1024.5" y1="1787.5" x2="572.5" y2="1435.5"/>
<line class="st3" x1="572.5" y1="613.5" x2="1024.5" y2="261.5"/>
<line class="st3" x1="572.5" y1="1005.5" x2="1024.5" y2="653.5"/>
<line class="st3" x1="900.5" y1="1925.5" x2="1025.5" y2="1828.5"/>
<line class="st3" x1="55.5" y1="1005.5" x2="507.5" y2="653.5"/>
<line class="st3" x1="55.5" y1="1396.5" x2="507.5" y2="1044.5"/>
<line class="st3" x1="55.5" y1="1787.5" x2="507.5" y2="1435.5"/>
<line class="st3" x1="578.5" y1="1792.5" x2="1030.5" y2="1440.5"/>
<line class="st3" x1="390.5" y1="1920.5" x2="507.5" y2="1828.5"/>
<line class="st3" x1="173.5" y1="1920.5" x2="54.5" y2="1827.5"/>
<line class="st3" x1="699.5" y1="1926.5" x2="572.5" y2="1827.5"/>
<line class="st3" x1="572.5" y1="1398.5" x2="1024.5" y2="1046.5"/>
</svg>
